<svg width="32" height="32" viewBox="0 0 32 32" fill="none" xmlns="http://www.w3.org/2000/svg">
  <rect width="32" height="32" rx="6" fill="#2563eb"/>
  <path d="M8 12C8 10.8954 8.89543 10 10 10H22C23.1046 10 24 10.8954 24 12V18C24 20.2091 22.2091 22 20 22H18C17.4477 22 17 21.5523 17 21C17 20.4477 16.5523 20 16 20C15.4477 20 15 20.4477 15 21C15 21.5523 14.5523 22 14 22H12C9.79086 22 8 20.2091 8 18V12Z" fill="white"/>
  <circle cx="12" cy="15" r="1.5" fill="#2563eb"/>
  <circle cx="20" cy="15" r="1.5" fill="#2563eb"/>
  <rect x="10.5" y="13" width="1" height="4" rx="0.5" fill="#2563eb"/>
  <rect x="9" y="14.5" width="4" height="1" rx="0.5" fill="#2563eb"/>
  <circle cx="19" cy="13.5" r="0.75" fill="#2563eb"/>
  <circle cx="21" cy="13.5" r="0.75" fill="#2563eb"/>
</svg>
